HIERARCHY
ROOT root
{
	OFFSET	0	13.1	24.9
	CHANNELS 6  Xposition Yposition Zposition Xrotation Yrotation Zrotation
	JOINT spine_1
	{
		OFFSET	0	9.99999	0
		CHANNELS 3  Xrotation Yrotation Zrotation
		JOINT spine_2
		{
			OFFSET	0	112	-10
			CHANNELS 3  Xrotation Yrotation Zrotation
			JOINT spine_3
			{
				OFFSET	0	206.5	19.3
				CHANNELS 3  Xrotation Yrotation Zrotation
				JOINT spine_4
				{
					OFFSET	0	110.4	14.6
					CHANNELS 3  Xrotation Yrotation Zrotation
					JOINT neck_1
					{
						OFFSET	0	71.8	-50.3
						CHANNELS 3  Xrotation Yrotation Zrotation
						JOINT neck_2
						{
							OFFSET	0	86.2	-25.8
							CHANNELS 3  Xrotation Yrotation Zrotation
							JOINT head_ee
							{
								OFFSET	0	179.8	-8.7
								CHANNELS 3  Xrotation Yrotation Zrotation
								End Site
								{
									OFFSET	1	0	0
								}
							}
						}
					}
					JOINT left_clavicle
					{
						OFFSET	-43.2	22.4	-70.8
						CHANNELS 3  Xrotation Yrotation Zrotation
						JOINT left_shoulder
						{
							OFFSET	-93.9	-5.79999	48.7
							CHANNELS 3  Xrotation Yrotation Zrotation
							JOINT left_elbow
							{
								OFFSET	-291.4	-30.8	15.2
								CHANNELS 3  Xrotation Yrotation Zrotation
								JOINT left_lowarm_twist
								{
									OFFSET	-110.7	-3.89999	13.6
									CHANNELS 3  Xrotation Yrotation Zrotation
									JOINT left_hand
									{
										OFFSET	-110.7	-3.89999	13.6
										CHANNELS 3  Xrotation Yrotation Zrotation
										JOINT left_ee
										{
											OFFSET	-80.8	-5.10001	12.1
											CHANNELS 3  Xrotation Yrotation Zrotation
											End Site
											{
												OFFSET	1	0	0
											}
										}
									}
								}
							}
						}
					}
					JOINT right_clavicle
					{
						OFFSET	43.2	22.4	-70.8
						CHANNELS 3  Xrotation Yrotation Zrotation
						JOINT right_shoulder
						{
							OFFSET	93.9	-5.79999	48.7
							CHANNELS 3  Xrotation Yrotation Zrotation
							JOINT right_elbow
							{
								OFFSET	291.4	-30.8	15.2
								CHANNELS 3  Xrotation Yrotation Zrotation
								JOINT right_lowarm_twist
								{
									OFFSET	110.7	-3.89999	13.6
									CHANNELS 3  Xrotation Yrotation Zrotation
									JOINT right_hand
									{
										OFFSET	110.7	-3.89999	13.6
										CHANNELS 3  Xrotation Yrotation Zrotation
										JOINT right_ee
										{
											OFFSET	80.8	-5.10001	12.1
											CHANNELS 3  Xrotation Yrotation Zrotation
											End Site
											{
												OFFSET	1	0	0
											}
										}
									}
								}
							}
						}
					}
				}
			}
		}
	}
	JOINT left_hip
	{
		OFFSET	-82.8	-127.5	0.300001
		CHANNELS 3  Xrotation Yrotation Zrotation
		JOINT left_knee
		{
			OFFSET	-28.2	-396.7	2.2
			CHANNELS 3  Xrotation Yrotation Zrotation
			JOINT left_ankle
			{
				OFFSET	-11.7	-411.3	35.4
				CHANNELS 3  Xrotation Yrotation Zrotation
				JOINT left_toes
				{
					OFFSET	0	-60	-88.6
					CHANNELS 3  Xrotation Yrotation Zrotation
					JOINT left_foot_ee
					{
						OFFSET	-22.5	-16.5	-42.2
						CHANNELS 3  Xrotation Yrotation Zrotation
						End Site
						{
							OFFSET	1	0	0
						}
					}
				}
			}
		}
	}
	JOINT right_hip
	{
		OFFSET	82.8	-127.5	0.300001
		CHANNELS 3  Xrotation Yrotation Zrotation
		JOINT right_knee
		{
			OFFSET	28.2	-396.7	2.2
			CHANNELS 3  Xrotation Yrotation Zrotation
			JOINT right_ankle
			{
				OFFSET	11.7	-411.3	35.4
				CHANNELS 3  Xrotation Yrotation Zrotation
				JOINT right_toes
				{
					OFFSET	0	-60	-88.6
					CHANNELS 3  Xrotation Yrotation Zrotation
					JOINT right_foot_ee
					{
						OFFSET	22.5	-16.5	-42.2
						CHANNELS 3  Xrotation Yrotation Zrotation
						End Site
						{
							OFFSET	1	0	0
						}
					}
				}
			}
		}
	}
}
MOTION
Frames: 12
Frame Time: 0.02
510.63179944 711.891 -1085.3293341 -168.025079523 -29.1129801205 -177.643132114 2.69118 0.746525 2.96575 2.6959 0.556382 3.00719 2.72424 0.0576305 3.05764 2.7116 0.539583 3.01025 8.41002 6.30722 -1.61238 8.65835 11.9539 -1.83154 -0.0 0.0 -0.0 7.93166 -0.285275 15.454 -21.5708 -26.1595 45.5589 0.746473 -20.2934 0.133597 43.4733 -0.542143 -5.39565 2.7272 0.248389 18.6501 -0.0 0.0 -0.0 6.12347 -18.8888 -11.4811 -16.6553 35.4107 -64.1664 1.12384 29.1045 -0.291746 61.0003 1.86379 7.19943 -5.64479 -15.2048 30.2935 0.0 0.0 0.0 18.1266 16.0409 4.49892 -14.8238 0.321374 2.24585 32.3546 4.32521 -4.13601 -31.4576 0.0 0.0 -0.0 0.0 -0.0 41.6125 23.983 -3.07846 -67.3539 3.04416 -9.28306 -0.417625 -24.349 -0.0636155 10.2661 -0.0 -0.0 0.0 0.0 0.0 
524.703268622 711.52 -1078.14031129 -168.298937655 -32.1878368063 -177.26890137 2.73889 0.423833 2.86256 2.74342 0.240899 2.88371 2.7545 -0.232314 2.88441 2.74297 0.225945 2.88491 8.35204 6.50011 -1.47942 8.60402 12.1603 -1.66561 -0.0 0.0 -0.0 8.04688 -0.279179 15.6856 -21.218 -26.3928 44.8121 0.822267 -22.1623 0.161044 43.5673 -0.547697 -5.40631 2.82339 -0.940634 18.8542 -0.0 0.0 -0.0 6.01182 -19.4063 -11.2814 -17.1624 35.6124 -63.6524 1.02554 26.931 -0.245563 61.7018 1.92776 7.26266 -5.67796 -14.8012 30.8469 0.0 0.0 0.0 16.6227 15.4766 4.89042 -15.6011 0.322085 2.3651 31.4115 4.54157 -4.03835 -32.2777 0.0 0.0 -0.0 0.0 -0.0 44.2831 26.7017 -3.86133 -64.4754 2.70213 -8.99935 2.17102 -25.5303 0.330803 9.64832 -0.0 -0.0 0.0 0.0 0.0 
538.466257822 718.067 -1069.35756234 -167.70623309 -34.6832759579 -176.680012657 2.86408 0.357306 2.87273 2.86865 0.173861 2.88963 2.87618 -0.293386 2.87996 2.86464 0.164935 2.89015 8.22418 6.89235 -0.917605 8.46649 12.3201 -0.978065 -0.0 0.0 -0.0 7.94235 -0.295518 15.4756 -19.8694 -25.6952 44.7148 0.951657 -25.2399 0.213073 43.5267 -0.545298 -5.40171 3.05126 -3.25312 19.5234 -0.0 0.0 -0.0 6.03169 -20.141 -11.2716 -17.6478 36.1227 -63.0225 0.891226 23.8206 -0.187981 62.7353 2.02341 7.35439 -5.67499 -14.2147 31.2737 0.0 0.0 0.0 15.7979 12.6077 5.59939 -14.9188 0.321547 2.26043 29.9191 4.83634 -3.88041 -33.4292 0.0 0.0 -0.0 0.0 -0.0 43.47 30.5738 -3.58839 -58.2997 2.01921 -8.33545 5.2832 -25.0015 0.796482 8.82722 -0.0 -0.0 0.0 0.0 0.0 
561.02302745 722.409 -1053.15148969 -165.816298818 -37.2542837189 -175.259523269 3.20027 0.0848314 3.03401 3.20538 -0.108312 3.03326 3.19769 -0.578676 2.97957 3.18532 -0.101073 3.03351 8.26673 8.06052 0.442531 8.50932 13.0393 0.660387 -0.0 0.0 -0.0 7.22424 0.573531 14.0345 -20.6337 -26.0123 41.7369 1.32324 -33.243 0.395033 43.8795 -0.566279 -5.44167 2.8165 -1.2519 18.6793 -0.0 0.0 -0.0 6.64658 -22.1983 -12.0456 -19.1092 37.6732 -61.5451 0.602694 16.6235 -0.0880506 62.7869 2.02822 7.35892 -5.22017 -12.555 29.1265 0.0 0.0 0.0 16.3422 11.0959 5.35663 -16.9811 0.319363 2.57681 30.6039 3.7086 -3.95563 -33.8216 0.0 0.0 -0.0 0.0 -0.0 39.9756 35.8358 -4.56239 -41.9284 0.593989 -6.26611 5.77498 -28.2276 0.885975 7.04864 -0.0 -0.0 0.0 0.0 0.0 
601.419482874 716.957 -1037.13383898 -162.595784279 -40.066531976 -171.999001901 3.76587 0.0658882 2.73154 3.77001 -0.107995 2.7302 3.76268 -0.504676 2.68536 3.75263 -0.0744052 2.73132 10.9624 9.33956 1.61531 11.2444 13.6866 1.95261 -0.0 0.0 -0.0 6.3567 4.06606 12.331 -16.2889 -24.7217 39.9341 1.93526 -43.7865 0.777767 47.3902 -0.788373 -5.83215 2.88113 0.725769 19.9301 -0.0 0.0 -0.0 6.02546 -25.2367 -10.9323 -20.7449 41.7796 -59.9289 0.386157 10.8296 -0.0366032 63.3931 2.08514 7.41187 -5.1993 -11.7757 29.5227 0.0 0.0 0.0 15.2172 5.65982 6.16729 -15.276 0.321984 2.31523 35.1889 5.18457 -4.41681 -34.0241 0.0 0.0 -0.0 0.0 -0.0 37.4766 43.6576 -3.26694 -23.5183 -0.237298 -3.576 4.96648 -28.3119 0.763962 3.63073 -0.0 -0.0 0.0 0.0 0.0 
604.358167114 716.957 -1040.88774587 -162.333409252 -41.0369585279 -171.595446971 3.76587 0.0658882 2.73154 3.77001 -0.107995 2.7302 3.76268 -0.504676 2.68536 3.75263 -0.0744052 2.73132 10.9624 9.33956 1.61531 11.2444 13.6866 1.95261 -0.0 0.0 -0.0 6.3567 4.06606 12.331 -16.2889 -24.7217 39.9341 1.93526 -43.7865 0.777767 47.3902 -0.788373 -5.83215 2.88113 0.725769 19.9301 -0.0 0.0 -0.0 6.02546 -25.2367 -10.9323 -20.7449 41.7796 -59.9289 0.386157 10.8296 -0.0366032 63.3931 2.08514 7.41187 -5.1993 -11.7757 29.5227 0.0 0.0 0.0 15.2172 5.65982 6.16729 -15.276 0.321984 2.31523 35.1889 5.18457 -4.41681 -34.0241 0.0 0.0 -0.0 0.0 -0.0 37.4766 43.6576 -3.26694 -23.5183 -0.237298 -3.576 4.96648 -28.3119 0.763962 3.63073 -0.0 -0.0 0.0 0.0 0.0 
621.280238676 713.562 -1046.12787389 -160.896051727 -43.5766459203 -169.721086366 3.80995 0.0932372 2.61166 3.81374 -0.0730805 2.6123 3.80837 -0.450837 2.57416 3.79912 -0.0387827 2.61303 10.5854 9.52419 1.39219 10.8928 14.2554 1.68867 -0.0 0.0 -0.0 6.08967 3.95603 11.8245 -15.538 -25.5612 40.6523 1.96122 -44.1678 0.795791 46.7104 -0.743498 -5.7576 2.7818 0.655967 19.1976 -0.0 0.0 -0.0 5.86126 -24.9598 -10.7276 -21.0681 41.8029 -59.5374 0.402502 11.2764 -0.0397367 65.5033 2.2876 7.59147 -5.48633 -13.2548 30.5886 0.0 0.0 0.0 15.1076 1.69606 6.15485 -14.7736 0.321272 2.23816 36.1617 2.84737 -4.51441 -33.3884 0.0 0.0 -0.0 0.0 -0.0 36.6693 44.2881 -2.21329 -18.9814 -0.306368 -2.88345 5.44114 -26.6153 0.827322 3.05692 -0.0 -0.0 0.0 0.0 0.0 
638.31991468 716.696 -1054.8486538 -159.005822345 -46.7202915185 -167.19465271 3.87762 0.0569122 2.57485 3.8813 -0.106993 2.57326 3.87445 -0.475838 2.53117 3.86552 -0.070253 2.57453 10.8469 9.32284 1.33693 11.144 13.9353 1.61147 -0.0 0.0 -0.0 6.09245 3.49876 11.8292 -13.8159 -25.9829 40.6018 2.00833 -44.8475 0.828819 47.1453 -0.772106 -5.80536 2.58324 0.679694 17.8072 -0.0 0.0 -0.0 5.83684 -24.1544 -10.7469 -21.3254 42.0749 -59.0725 0.389992 10.9345 -0.0373272 65.1005 2.24845 7.55777 -5.38474 -12.3241 30.5116 0.0 0.0 0.0 14.6576 0.328096 6.00493 -14.6123 0.3209 2.2134 35.1732 1.12351 -4.42834 -33.82 0.0 0.0 -0.0 0.0 -0.0 36.8215 45.9128 -2.04354 -15.3353 -0.322024 -2.32433 5.10081 -26.7155 0.776726 2.82258 -0.0 -0.0 0.0 0.0 0.0 
653.251768757 714.18 -1059.00448893 -157.443625678 -49.100306836 -165.233550007 3.92539 0.0921021 2.52911 3.92895 -0.0689662 2.52985 3.92389 -0.429767 2.49405 3.91521 -0.0306157 2.5306 10.8323 9.50975 0.906479 11.1717 14.6401 1.07401 -0.0 0.0 -0.0 5.79455 3.09049 11.2591 -12.6329 -26.2552 41.3 2.02156 -45.0355 0.838165 46.6933 -0.742386 -5.75573 2.50309 0.650792 17.234 -0.0 0.0 -0.0 5.91163 -23.9317 -10.8658 -21.6449 42.23 -58.7193 0.349846 9.8321 -0.0300911 65.7418 2.3109 7.6113 -5.17138 -12.788 28.6044 0.0 0.0 0.0 13.4697 -1.7617 6.19986 -12.0172 0.305341 1.81558 34.3633 1.25041 -4.34889 -33.5234 0.0 0.0 -0.0 0.0 -0.0 36.7162 46.7829 -1.8909 -8.20265 -0.249815 -1.233 4.36349 -26.0422 0.663158 1.48531 -0.0 -0.0 0.0 0.0 0.0 
693.172802443 703.647 -1063.28401749 -156.094659321 -51.7221341599 -163.872836273 3.83512 0.0978373 2.27379 3.838 -0.0470099 2.27541 3.83457 -0.375117 2.24478 3.82754 -0.0159834 2.27583 9.00831 9.38153 0.858084 9.32632 14.7587 1.11976 -0.0 0.0 -0.0 5.81954 4.62767 11.316 -9.13614 -27.3392 44.2997 2.03623 -45.2426 0.848563 47.1129 -0.769963 -5.80181 1.81215 0.476777 12.389 -0.0 0.0 -0.0 5.49894 -23.8143 -10.2954 -22.8566 42.8903 -57.6289 0.445431 12.4433 -0.04856 64.0639 2.14878 7.46976 -5.22189 -9.88494 31.0157 0.0 0.0 0.0 11.8136 -4.33156 6.63611 -12.7065 0.311231 1.92117 35.859 -4.25469 -4.54593 -33.7061 0.0 0.0 -0.0 0.0 -0.0 36.6874 48.0069 0.706293 -0.553188 -0.0223829 -0.0819418 3.1166 -23.862 0.469754 0.268989 -0.0 -0.0 0.0 0.0 0.0 
695.696544032 703.647 -1068.80688531 -155.542962271 -52.67521175 -163.17463743 3.83512 0.0978373 2.27379 3.838 -0.0470099 2.27541 3.83457 -0.375117 2.24478 3.82754 -0.0159834 2.27583 9.00831 9.38153 0.858084 9.32632 14.7587 1.11976 -0.0 0.0 -0.0 5.81954 4.62767 11.316 -9.13614 -27.3392 44.2997 2.03623 -45.2426 0.848563 47.1129 -0.769963 -5.80181 1.81215 0.476777 12.389 -0.0 0.0 -0.0 5.49894 -23.8143 -10.2954 -22.8566 42.8903 -57.6289 0.445431 12.4433 -0.04856 64.0639 2.14878 7.46976 -5.22189 -9.88494 31.0157 0.0 0.0 0.0 11.8136 -4.33156 6.63611 -12.7065 0.311231 1.92117 35.859 -4.25469 -4.54593 -33.7061 0.0 0.0 -0.0 0.0 -0.0 36.6874 48.0069 0.706293 -0.553188 -0.0223829 -0.0819418 3.1166 -23.862 0.469754 0.268989 -0.0 -0.0 0.0 0.0 0.0 
776.967524289 689.107 -1064.14420637 -150.503985562 -55.3348131299 -159.527050033 3.93717 0.414683 1.78926 3.9389 0.300007 1.81201 3.94742 0.0390321 1.83626 3.94287 0.328497 1.80706 9.56689 10.5577 3.17364 9.84825 14.4967 3.90694 -0.0 0.0 -0.0 5.25855 6.57369 10.2864 -0.869247 -28.2788 55.0977 1.45556 -35.791 0.470031 43.5928 -0.549207 -5.4092 -0.0546826 5.86463 2.09139 -0.0 0.0 -0.0 5.53583 -20.7453 -10.4977 -25.0978 45.0741 -55.9319 0.479152 13.3527 -0.0560873 63.3313 2.07932 7.40651 -5.35728 -11.6378 30.8007 0.0 0.0 0.0 10.5542 -6.35302 10.6063 -14.2238 0.319718 2.15382 29.4463 -2.92148 -3.87729 -38.2809 0.0 0.0 -0.0 0.0 -0.0 45.6324 47.9524 -2.53314 -7.9788 -0.245353 -1.19894 -9.81171 -18.153 -1.48259 13.7127 -0.0 -0.0 0.0 0.0 0.0 
